<svg width="512" height="512" viewBox="0 0 512 512" xmlns="http://www.w3.org/2000/svg">
  <defs>
    <linearGradient id="g" x1="0" y1="0" x2="0" y2="1">
      <stop offset="0%" stop-color="#00E5A8"/>
      <stop offset="100%" stop-color="#6A5CFF"/>
    </linearGradient>
    <clipPath id="disc">
      <circle cx="256.0" cy="256.0" r="256.0"/>
    </clipPath>
  </defs>
  <g clip-path="url(#disc)">
    <rect width="512" height="512" fill="url(#g)"/>
  </g>
  <!-- Stylized A -->
  <polygon points="256,102 420,420 92,420" fill="white" fill-opacity="0.96"/>
  <polygon points="256,160 367,377 145,377" fill="url(#g)"/>
  <rect x="112" y="323" width="288" height="15" rx="7" ry="7" fill="white" fill-opacity="0.96"/>
  <!-- Flow wave -->
  <path d="M 0.00,296.96 L 4.00,299.60 L 8.00,302.22 L 12.00,304.81 L 16.00,307.36 L 20.00,309.86 L 24.00,312.28 L 28.00,314.63 L 32.00,316.87 L 36.00,319.01 L 40.00,321.03 L 44.00,322.92 L 48.00,324.66 L 52.00,326.26 L 56.00,327.70 L 60.00,328.97 L 64.00,330.07 L 68.00,330.99 L 72.00,331.73 L 76.00,332.27 L 80.00,332.63 L 84.00,332.79 L 88.00,332.76 L 92.00,332.53 L 96.00,332.11 L 100.00,331.50 L 104.00,330.70 L 108.00,329.73 L 112.00,328.57 L 116.00,327.24 L 120.00,325.75 L 124.00,324.10 L 128.00,322.30 L 132.00,320.37 L 136.00,318.31 L 140.00,316.13 L 144.00,313.85 L 148.00,311.48 L 152.00,309.03 L 156.00,306.52 L 160.00,303.95 L 164.00,301.35 L 168.00,298.72 L 172.00,296.08 L 176.00,293.45 L 180.00,290.83 L 184.00,288.25 L 188.00,285.72 L 192.00,283.24 L 196.00,280.85 L 200.00,278.53 L 204.00,276.32 L 208.00,274.22 L 212.00,272.25 L 216.00,270.40 L 220.00,268.71 L 224.00,267.16 L 228.00,265.78 L 232.00,264.56 L 236.00,263.52 L 240.00,262.66 L 244.00,261.99 L 248.00,261.51 L 252.00,261.22 L 256.00,261.12 L 260.00,261.22 L 264.00,261.51 L 268.00,261.99 L 272.00,262.66 L 276.00,263.52 L 280.00,264.56 L 284.00,265.78 L 288.00,267.16 L 292.00,268.71 L 296.00,270.40 L 300.00,272.25 L 304.00,274.22 L 308.00,276.32 L 312.00,278.53 L 316.00,280.85 L 320.00,283.24 L 324.00,285.72 L 328.00,288.25 L 332.00,290.83 L 336.00,293.45 L 340.00,296.08 L 344.00,298.72 L 348.00,301.35 L 352.00,303.95 L 356.00,306.52 L 360.00,309.03 L 364.00,311.48 L 368.00,313.85 L 372.00,316.13 L 376.00,318.31 L 380.00,320.37 L 384.00,322.30 L 388.00,324.10 L 392.00,325.75 L 396.00,327.24 L 400.00,328.57 L 404.00,329.73 L 408.00,330.70 L 412.00,331.50 L 416.00,332.11 L 420.00,332.53 L 424.00,332.76 L 428.00,332.79 L 432.00,332.63 L 436.00,332.27 L 440.00,331.73 L 444.00,330.99 L 448.00,330.07 L 452.00,328.97 L 456.00,327.70 L 460.00,326.26 L 464.00,324.66 L 468.00,322.92 L 472.00,321.03 L 476.00,319.01 L 480.00,316.87 L 484.00,314.63 L 488.00,312.28 L 492.00,309.86 L 496.00,307.36 L 500.00,304.81 L 504.00,302.22 L 508.00,299.60 L 512.00,296.96" stroke="white" stroke-opacity="0.9" stroke-width="6.14" fill="none" stroke-linecap="round" />
</svg>